<svg xmlns="http://www.w3.org/2000/svg" width="512" height="512" version="1.1" viewBox="0 0 2048 2048"><path fill="#8550FC" d="m0 0h254l1 1v127h127l1 1v639h895l1 1v127h127l1 1v254l-5 1h-1018l-1-1v-127h-127l-1-1v-127h-127l-1-1v-127h-127l-1-1v-766z" transform="translate(257,640)"/><path fill="#8550FC" d="m0 0h1022l1 1v127h127l1 1v254l-5 1h-1018l-1-1v-127h-127l-1-1v-254z" transform="translate(513,384)"/><path fill="#452E72" d="m0 0h126l1 1v254l-5 1h-1018l-1-1v-126l896-1v-29z" transform="translate(1537,1536)"/><path fill="#452E72" d="m0 0h126l1 1v254l-5 1h-1018l-1-1v-126l896-1v-29z" transform="translate(1537,512)"/><path fill="#452E72" d="m0 0h126l1 1v638l-7 1-108-1-12-1z" transform="translate(513,768)"/><path fill="#452E72" d="m0 0h32l1 1v127h-126l-1-1v-126z" transform="translate(478,1408)"/></svg>